<mxfile host="app.diagrams.net" modified="2023-11-22T20:46:09.909Z" agent="Mozilla/5.0 (Windows NT 10.0; Win64; x64; rv:109.0) Gecko/20100101 Firefox/119.0" etag="9Vs5T0fKLA4lJCWuulMW" version="22.1.3" type="device">
  <diagram name="PÃ¡gina-1" id="BNCfJ3BfF6oO2T3udBtn">
    <mxGraphModel dx="880" dy="470" grid="1" gridSize="10" guides="1" tooltips="1" connect="1" arrows="1" fold="1" page="1" pageScale="1" pageWidth="827" pageHeight="1169" math="0" shadow="0">
      <root>
        <mxCell id="0" />
        <mxCell id="1" parent="0" />
        <mxCell id="Mqsz3vJmdGS4ghxJ8QJ2-1" value="Cliente" style="swimlane;fontStyle=0;childLayout=stackLayout;horizontal=1;startSize=26;fillColor=none;horizontalStack=0;resizeParent=1;resizeParentMax=0;resizeLast=0;collapsible=1;marginBottom=0;whiteSpace=wrap;html=1;" vertex="1" parent="1">
          <mxGeometry x="80" y="41" width="140" height="156" as="geometry" />
        </mxCell>
        <mxCell id="Mqsz3vJmdGS4ghxJ8QJ2-2" value="- cpf: String" style="text;strokeColor=none;fillColor=none;align=left;verticalAlign=top;spacingLeft=4;spacingRight=4;overflow=hidden;rotatable=0;points=[[0,0.5],[1,0.5]];portConstraint=eastwest;whiteSpace=wrap;html=1;" vertex="1" parent="Mqsz3vJmdGS4ghxJ8QJ2-1">
          <mxGeometry y="26" width="140" height="26" as="geometry" />
        </mxCell>
        <mxCell id="Mqsz3vJmdGS4ghxJ8QJ2-3" value="- email: String" style="text;strokeColor=none;fillColor=none;align=left;verticalAlign=top;spacingLeft=4;spacingRight=4;overflow=hidden;rotatable=0;points=[[0,0.5],[1,0.5]];portConstraint=eastwest;whiteSpace=wrap;html=1;" vertex="1" parent="Mqsz3vJmdGS4ghxJ8QJ2-1">
          <mxGeometry y="52" width="140" height="26" as="geometry" />
        </mxCell>
        <mxCell id="Mqsz3vJmdGS4ghxJ8QJ2-4" value="- tel: String" style="text;strokeColor=none;fillColor=none;align=left;verticalAlign=top;spacingLeft=4;spacingRight=4;overflow=hidden;rotatable=0;points=[[0,0.5],[1,0.5]];portConstraint=eastwest;whiteSpace=wrap;html=1;" vertex="1" parent="Mqsz3vJmdGS4ghxJ8QJ2-1">
          <mxGeometry y="78" width="140" height="26" as="geometry" />
        </mxCell>
        <mxCell id="Mqsz3vJmdGS4ghxJ8QJ2-51" value="- nome: String" style="text;strokeColor=none;fillColor=none;align=left;verticalAlign=top;spacingLeft=4;spacingRight=4;overflow=hidden;rotatable=0;points=[[0,0.5],[1,0.5]];portConstraint=eastwest;whiteSpace=wrap;html=1;" vertex="1" parent="Mqsz3vJmdGS4ghxJ8QJ2-1">
          <mxGeometry y="104" width="140" height="26" as="geometry" />
        </mxCell>
        <mxCell id="Mqsz3vJmdGS4ghxJ8QJ2-52" value="- senha: String" style="text;strokeColor=none;fillColor=none;align=left;verticalAlign=top;spacingLeft=4;spacingRight=4;overflow=hidden;rotatable=0;points=[[0,0.5],[1,0.5]];portConstraint=eastwest;whiteSpace=wrap;html=1;" vertex="1" parent="Mqsz3vJmdGS4ghxJ8QJ2-1">
          <mxGeometry y="130" width="140" height="26" as="geometry" />
        </mxCell>
        <mxCell id="Mqsz3vJmdGS4ghxJ8QJ2-5" value="&lt;div&gt;Pedido&lt;/div&gt;" style="swimlane;fontStyle=0;childLayout=stackLayout;horizontal=1;startSize=26;fillColor=none;horizontalStack=0;resizeParent=1;resizeParentMax=0;resizeLast=0;collapsible=1;marginBottom=0;whiteSpace=wrap;html=1;" vertex="1" parent="1">
          <mxGeometry x="340" y="54" width="170" height="130" as="geometry" />
        </mxCell>
        <mxCell id="Mqsz3vJmdGS4ghxJ8QJ2-6" value="- id: Integer" style="text;strokeColor=none;fillColor=none;align=left;verticalAlign=top;spacingLeft=4;spacingRight=4;overflow=hidden;rotatable=0;points=[[0,0.5],[1,0.5]];portConstraint=eastwest;whiteSpace=wrap;html=1;" vertex="1" parent="Mqsz3vJmdGS4ghxJ8QJ2-5">
          <mxGeometry y="26" width="170" height="26" as="geometry" />
        </mxCell>
        <mxCell id="Mqsz3vJmdGS4ghxJ8QJ2-7" value="- dataCompra: LocalDate" style="text;strokeColor=none;fillColor=none;align=left;verticalAlign=top;spacingLeft=4;spacingRight=4;overflow=hidden;rotatable=0;points=[[0,0.5],[1,0.5]];portConstraint=eastwest;whiteSpace=wrap;html=1;" vertex="1" parent="Mqsz3vJmdGS4ghxJ8QJ2-5">
          <mxGeometry y="52" width="170" height="26" as="geometry" />
        </mxCell>
        <mxCell id="Mqsz3vJmdGS4ghxJ8QJ2-8" value="&lt;div&gt;- horaCompra: LocalTime&lt;/div&gt;" style="text;strokeColor=none;fillColor=none;align=left;verticalAlign=top;spacingLeft=4;spacingRight=4;overflow=hidden;rotatable=0;points=[[0,0.5],[1,0.5]];portConstraint=eastwest;whiteSpace=wrap;html=1;" vertex="1" parent="Mqsz3vJmdGS4ghxJ8QJ2-5">
          <mxGeometry y="78" width="170" height="26" as="geometry" />
        </mxCell>
        <mxCell id="Mqsz3vJmdGS4ghxJ8QJ2-53" value="- precoCompra: Double" style="text;strokeColor=none;fillColor=none;align=left;verticalAlign=top;spacingLeft=4;spacingRight=4;overflow=hidden;rotatable=0;points=[[0,0.5],[1,0.5]];portConstraint=eastwest;whiteSpace=wrap;html=1;" vertex="1" parent="Mqsz3vJmdGS4ghxJ8QJ2-5">
          <mxGeometry y="104" width="170" height="26" as="geometry" />
        </mxCell>
        <mxCell id="Mqsz3vJmdGS4ghxJ8QJ2-9" value="FormaPagamento" style="swimlane;fontStyle=0;childLayout=stackLayout;horizontal=1;startSize=26;fillColor=none;horizontalStack=0;resizeParent=1;resizeParentMax=0;resizeLast=0;collapsible=1;marginBottom=0;whiteSpace=wrap;html=1;" vertex="1" parent="1">
          <mxGeometry x="600" y="80" width="140" height="78" as="geometry" />
        </mxCell>
        <mxCell id="Mqsz3vJmdGS4ghxJ8QJ2-10" value="- id: Integer" style="text;strokeColor=none;fillColor=none;align=left;verticalAlign=top;spacingLeft=4;spacingRight=4;overflow=hidden;rotatable=0;points=[[0,0.5],[1,0.5]];portConstraint=eastwest;whiteSpace=wrap;html=1;" vertex="1" parent="Mqsz3vJmdGS4ghxJ8QJ2-9">
          <mxGeometry y="26" width="140" height="26" as="geometry" />
        </mxCell>
        <mxCell id="Mqsz3vJmdGS4ghxJ8QJ2-11" value="- nome: String" style="text;strokeColor=none;fillColor=none;align=left;verticalAlign=top;spacingLeft=4;spacingRight=4;overflow=hidden;rotatable=0;points=[[0,0.5],[1,0.5]];portConstraint=eastwest;whiteSpace=wrap;html=1;" vertex="1" parent="Mqsz3vJmdGS4ghxJ8QJ2-9">
          <mxGeometry y="52" width="140" height="26" as="geometry" />
        </mxCell>
        <mxCell id="Mqsz3vJmdGS4ghxJ8QJ2-13" value="&lt;div&gt;Passagem&lt;/div&gt;" style="swimlane;fontStyle=0;childLayout=stackLayout;horizontal=1;startSize=26;fillColor=none;horizontalStack=0;resizeParent=1;resizeParentMax=0;resizeLast=0;collapsible=1;marginBottom=0;whiteSpace=wrap;html=1;" vertex="1" parent="1">
          <mxGeometry x="337.5" y="250" width="175" height="104" as="geometry" />
        </mxCell>
        <mxCell id="Mqsz3vJmdGS4ghxJ8QJ2-14" value="- id: Integer" style="text;strokeColor=none;fillColor=none;align=left;verticalAlign=top;spacingLeft=4;spacingRight=4;overflow=hidden;rotatable=0;points=[[0,0.5],[1,0.5]];portConstraint=eastwest;whiteSpace=wrap;html=1;" vertex="1" parent="Mqsz3vJmdGS4ghxJ8QJ2-13">
          <mxGeometry y="26" width="175" height="26" as="geometry" />
        </mxCell>
        <mxCell id="Mqsz3vJmdGS4ghxJ8QJ2-15" value="- origem: String" style="text;strokeColor=none;fillColor=none;align=left;verticalAlign=top;spacingLeft=4;spacingRight=4;overflow=hidden;rotatable=0;points=[[0,0.5],[1,0.5]];portConstraint=eastwest;whiteSpace=wrap;html=1;" vertex="1" parent="Mqsz3vJmdGS4ghxJ8QJ2-13">
          <mxGeometry y="52" width="175" height="26" as="geometry" />
        </mxCell>
        <mxCell id="Mqsz3vJmdGS4ghxJ8QJ2-16" value="- dataPartida: LocalDate" style="text;strokeColor=none;fillColor=none;align=left;verticalAlign=top;spacingLeft=4;spacingRight=4;overflow=hidden;rotatable=0;points=[[0,0.5],[1,0.5]];portConstraint=eastwest;whiteSpace=wrap;html=1;" vertex="1" parent="Mqsz3vJmdGS4ghxJ8QJ2-13">
          <mxGeometry y="78" width="175" height="26" as="geometry" />
        </mxCell>
        <mxCell id="Mqsz3vJmdGS4ghxJ8QJ2-17" value="Destino" style="swimlane;fontStyle=0;childLayout=stackLayout;horizontal=1;startSize=26;fillColor=none;horizontalStack=0;resizeParent=1;resizeParentMax=0;resizeLast=0;collapsible=1;marginBottom=0;whiteSpace=wrap;html=1;" vertex="1" parent="1">
          <mxGeometry x="355" y="420" width="140" height="130" as="geometry" />
        </mxCell>
        <mxCell id="Mqsz3vJmdGS4ghxJ8QJ2-18" value="- id: Integer" style="text;strokeColor=none;fillColor=none;align=left;verticalAlign=top;spacingLeft=4;spacingRight=4;overflow=hidden;rotatable=0;points=[[0,0.5],[1,0.5]];portConstraint=eastwest;whiteSpace=wrap;html=1;" vertex="1" parent="Mqsz3vJmdGS4ghxJ8QJ2-17">
          <mxGeometry y="26" width="140" height="26" as="geometry" />
        </mxCell>
        <mxCell id="Mqsz3vJmdGS4ghxJ8QJ2-19" value="- nome: String" style="text;strokeColor=none;fillColor=none;align=left;verticalAlign=top;spacingLeft=4;spacingRight=4;overflow=hidden;rotatable=0;points=[[0,0.5],[1,0.5]];portConstraint=eastwest;whiteSpace=wrap;html=1;" vertex="1" parent="Mqsz3vJmdGS4ghxJ8QJ2-17">
          <mxGeometry y="52" width="140" height="26" as="geometry" />
        </mxCell>
        <mxCell id="Mqsz3vJmdGS4ghxJ8QJ2-20" value="- localizacao: String" style="text;strokeColor=none;fillColor=none;align=left;verticalAlign=top;spacingLeft=4;spacingRight=4;overflow=hidden;rotatable=0;points=[[0,0.5],[1,0.5]];portConstraint=eastwest;whiteSpace=wrap;html=1;" vertex="1" parent="Mqsz3vJmdGS4ghxJ8QJ2-17">
          <mxGeometry y="78" width="140" height="26" as="geometry" />
        </mxCell>
        <mxCell id="Mqsz3vJmdGS4ghxJ8QJ2-54" value="- precoMedio: Double" style="text;strokeColor=none;fillColor=none;align=left;verticalAlign=top;spacingLeft=4;spacingRight=4;overflow=hidden;rotatable=0;points=[[0,0.5],[1,0.5]];portConstraint=eastwest;whiteSpace=wrap;html=1;" vertex="1" parent="Mqsz3vJmdGS4ghxJ8QJ2-17">
          <mxGeometry y="104" width="140" height="26" as="geometry" />
        </mxCell>
        <mxCell id="Mqsz3vJmdGS4ghxJ8QJ2-21" value="CompanhiaAerea" style="swimlane;fontStyle=0;childLayout=stackLayout;horizontal=1;startSize=26;fillColor=none;horizontalStack=0;resizeParent=1;resizeParentMax=0;resizeLast=0;collapsible=1;marginBottom=0;whiteSpace=wrap;html=1;" vertex="1" parent="1">
          <mxGeometry x="600" y="263" width="140" height="78" as="geometry" />
        </mxCell>
        <mxCell id="Mqsz3vJmdGS4ghxJ8QJ2-22" value="- id: Integer" style="text;strokeColor=none;fillColor=none;align=left;verticalAlign=top;spacingLeft=4;spacingRight=4;overflow=hidden;rotatable=0;points=[[0,0.5],[1,0.5]];portConstraint=eastwest;whiteSpace=wrap;html=1;" vertex="1" parent="Mqsz3vJmdGS4ghxJ8QJ2-21">
          <mxGeometry y="26" width="140" height="26" as="geometry" />
        </mxCell>
        <mxCell id="Mqsz3vJmdGS4ghxJ8QJ2-23" value="- nome: String" style="text;strokeColor=none;fillColor=none;align=left;verticalAlign=top;spacingLeft=4;spacingRight=4;overflow=hidden;rotatable=0;points=[[0,0.5],[1,0.5]];portConstraint=eastwest;whiteSpace=wrap;html=1;" vertex="1" parent="Mqsz3vJmdGS4ghxJ8QJ2-21">
          <mxGeometry y="52" width="140" height="26" as="geometry" />
        </mxCell>
        <mxCell id="Mqsz3vJmdGS4ghxJ8QJ2-25" value="Promocao" style="swimlane;fontStyle=0;childLayout=stackLayout;horizontal=1;startSize=26;fillColor=none;horizontalStack=0;resizeParent=1;resizeParentMax=0;resizeLast=0;collapsible=1;marginBottom=0;whiteSpace=wrap;html=1;" vertex="1" parent="1">
          <mxGeometry x="80" y="394" width="160" height="182" as="geometry" />
        </mxCell>
        <mxCell id="Mqsz3vJmdGS4ghxJ8QJ2-26" value="- id: Integer" style="text;strokeColor=none;fillColor=none;align=left;verticalAlign=top;spacingLeft=4;spacingRight=4;overflow=hidden;rotatable=0;points=[[0,0.5],[1,0.5]];portConstraint=eastwest;whiteSpace=wrap;html=1;" vertex="1" parent="Mqsz3vJmdGS4ghxJ8QJ2-25">
          <mxGeometry y="26" width="160" height="26" as="geometry" />
        </mxCell>
        <mxCell id="Mqsz3vJmdGS4ghxJ8QJ2-27" value="- nome: String" style="text;strokeColor=none;fillColor=none;align=left;verticalAlign=top;spacingLeft=4;spacingRight=4;overflow=hidden;rotatable=0;points=[[0,0.5],[1,0.5]];portConstraint=eastwest;whiteSpace=wrap;html=1;" vertex="1" parent="Mqsz3vJmdGS4ghxJ8QJ2-25">
          <mxGeometry y="52" width="160" height="26" as="geometry" />
        </mxCell>
        <mxCell id="Mqsz3vJmdGS4ghxJ8QJ2-28" value="- descricao: String" style="text;strokeColor=none;fillColor=none;align=left;verticalAlign=top;spacingLeft=4;spacingRight=4;overflow=hidden;rotatable=0;points=[[0,0.5],[1,0.5]];portConstraint=eastwest;whiteSpace=wrap;html=1;" vertex="1" parent="Mqsz3vJmdGS4ghxJ8QJ2-25">
          <mxGeometry y="78" width="160" height="26" as="geometry" />
        </mxCell>
        <mxCell id="Mqsz3vJmdGS4ghxJ8QJ2-55" value="- dataInicio: LocalDate" style="text;strokeColor=none;fillColor=none;align=left;verticalAlign=top;spacingLeft=4;spacingRight=4;overflow=hidden;rotatable=0;points=[[0,0.5],[1,0.5]];portConstraint=eastwest;whiteSpace=wrap;html=1;" vertex="1" parent="Mqsz3vJmdGS4ghxJ8QJ2-25">
          <mxGeometry y="104" width="160" height="26" as="geometry" />
        </mxCell>
        <mxCell id="Mqsz3vJmdGS4ghxJ8QJ2-56" value="- dataTermino: LocalDate" style="text;strokeColor=none;fillColor=none;align=left;verticalAlign=top;spacingLeft=4;spacingRight=4;overflow=hidden;rotatable=0;points=[[0,0.5],[1,0.5]];portConstraint=eastwest;whiteSpace=wrap;html=1;" vertex="1" parent="Mqsz3vJmdGS4ghxJ8QJ2-25">
          <mxGeometry y="130" width="160" height="26" as="geometry" />
        </mxCell>
        <mxCell id="Mqsz3vJmdGS4ghxJ8QJ2-58" value="- desconto: Double" style="text;strokeColor=none;fillColor=none;align=left;verticalAlign=top;spacingLeft=4;spacingRight=4;overflow=hidden;rotatable=0;points=[[0,0.5],[1,0.5]];portConstraint=eastwest;whiteSpace=wrap;html=1;" vertex="1" parent="Mqsz3vJmdGS4ghxJ8QJ2-25">
          <mxGeometry y="156" width="160" height="26" as="geometry" />
        </mxCell>
        <mxCell id="Mqsz3vJmdGS4ghxJ8QJ2-43" value="" style="endArrow=none;html=1;edgeStyle=orthogonalEdgeStyle;rounded=0;" edge="1" parent="1" source="Mqsz3vJmdGS4ghxJ8QJ2-25" target="Mqsz3vJmdGS4ghxJ8QJ2-17">
          <mxGeometry relative="1" as="geometry">
            <mxPoint x="80" y="350" as="sourcePoint" />
            <mxPoint x="240" y="350" as="targetPoint" />
          </mxGeometry>
        </mxCell>
        <mxCell id="Mqsz3vJmdGS4ghxJ8QJ2-46" value="" style="endArrow=none;html=1;edgeStyle=orthogonalEdgeStyle;rounded=0;" edge="1" parent="1" source="Mqsz3vJmdGS4ghxJ8QJ2-17" target="Mqsz3vJmdGS4ghxJ8QJ2-13">
          <mxGeometry relative="1" as="geometry">
            <mxPoint x="230" y="472" as="sourcePoint" />
            <mxPoint x="350" y="472" as="targetPoint" />
          </mxGeometry>
        </mxCell>
        <mxCell id="Mqsz3vJmdGS4ghxJ8QJ2-47" value="" style="endArrow=none;html=1;edgeStyle=orthogonalEdgeStyle;rounded=0;" edge="1" parent="1" source="Mqsz3vJmdGS4ghxJ8QJ2-13" target="Mqsz3vJmdGS4ghxJ8QJ2-21">
          <mxGeometry relative="1" as="geometry">
            <mxPoint x="240" y="482" as="sourcePoint" />
            <mxPoint x="360" y="482" as="targetPoint" />
          </mxGeometry>
        </mxCell>
        <mxCell id="Mqsz3vJmdGS4ghxJ8QJ2-48" value="" style="endArrow=none;html=1;edgeStyle=orthogonalEdgeStyle;rounded=0;" edge="1" parent="1" source="Mqsz3vJmdGS4ghxJ8QJ2-5" target="Mqsz3vJmdGS4ghxJ8QJ2-13">
          <mxGeometry relative="1" as="geometry">
            <mxPoint x="250" y="492" as="sourcePoint" />
            <mxPoint x="370" y="492" as="targetPoint" />
          </mxGeometry>
        </mxCell>
        <mxCell id="Mqsz3vJmdGS4ghxJ8QJ2-49" value="" style="endArrow=none;html=1;edgeStyle=orthogonalEdgeStyle;rounded=0;" edge="1" parent="1" source="Mqsz3vJmdGS4ghxJ8QJ2-1" target="Mqsz3vJmdGS4ghxJ8QJ2-5">
          <mxGeometry relative="1" as="geometry">
            <mxPoint x="260" y="502" as="sourcePoint" />
            <mxPoint x="380" y="502" as="targetPoint" />
          </mxGeometry>
        </mxCell>
        <mxCell id="Mqsz3vJmdGS4ghxJ8QJ2-50" value="" style="endArrow=none;html=1;edgeStyle=orthogonalEdgeStyle;rounded=0;" edge="1" parent="1" source="Mqsz3vJmdGS4ghxJ8QJ2-5" target="Mqsz3vJmdGS4ghxJ8QJ2-9">
          <mxGeometry relative="1" as="geometry">
            <mxPoint x="270" y="512" as="sourcePoint" />
            <mxPoint x="390" y="512" as="targetPoint" />
          </mxGeometry>
        </mxCell>
        <mxCell id="Mqsz3vJmdGS4ghxJ8QJ2-59" value="&lt;div&gt;Getters e Setters omitidos para&amp;nbsp;&lt;/div&gt;&lt;div&gt;diminuir o tamanho do diagrama&lt;/div&gt;" style="text;html=1;align=center;verticalAlign=middle;resizable=0;points=[];autosize=1;strokeColor=none;fillColor=none;" vertex="1" parent="1">
          <mxGeometry x="80" y="250" width="200" height="40" as="geometry" />
        </mxCell>
      </root>
    </mxGraphModel>
  </diagram>
</mxfile>
